<mxfile host="app.diagrams.net" modified="2024-04-09T00:49:12.874Z" agent="Mozilla/5.0 (Windows NT 10.0; Win64; x64) AppleWebKit/537.36 (KHTML, like Gecko) Chrome/123.0.0.0 Safari/537.36" etag="gmutDqAa0rRt4psTYeR8" version="23.0.2" type="github">
  <diagram name="Page-1" id="AFwPwmVNp6GbztJ-ZSCu">
    <mxGraphModel dx="1300" dy="591" grid="1" gridSize="10" guides="1" tooltips="1" connect="1" arrows="1" fold="1" page="1" pageScale="1" pageWidth="850" pageHeight="1100" math="0" shadow="0">
      <root>
        <mxCell id="0" />
        <mxCell id="1" parent="0" />
        <mxCell id="t8zbVI6YjiFiVaV7zS0x-1" value="Inpatient Precert" style="rounded=0;whiteSpace=wrap;html=1;" parent="1" vertex="1">
          <mxGeometry x="110" y="120" width="120" height="60" as="geometry" />
        </mxCell>
        <mxCell id="t8zbVI6YjiFiVaV7zS0x-2" value="" style="endArrow=classic;html=1;rounded=0;" parent="1" edge="1">
          <mxGeometry width="50" height="50" relative="1" as="geometry">
            <mxPoint x="250" y="149.5" as="sourcePoint" />
            <mxPoint x="310" y="149.5" as="targetPoint" />
          </mxGeometry>
        </mxCell>
        <mxCell id="t8zbVI6YjiFiVaV7zS0x-3" value="First Hospital Stay&amp;nbsp;&lt;br&gt;(6-8 days)" style="rounded=0;whiteSpace=wrap;html=1;" parent="1" vertex="1">
          <mxGeometry x="330" y="120" width="120" height="60" as="geometry" />
        </mxCell>
        <mxCell id="t8zbVI6YjiFiVaV7zS0x-5" value="" style="endArrow=classic;html=1;rounded=0;" parent="1" edge="1">
          <mxGeometry width="50" height="50" relative="1" as="geometry">
            <mxPoint x="470" y="149.5" as="sourcePoint" />
            <mxPoint x="530" y="149.5" as="targetPoint" />
          </mxGeometry>
        </mxCell>
        <mxCell id="t8zbVI6YjiFiVaV7zS0x-6" value="CM outreach" style="rounded=0;whiteSpace=wrap;html=1;" parent="1" vertex="1">
          <mxGeometry x="760" y="120" width="120" height="60" as="geometry" />
        </mxCell>
        <mxCell id="t8zbVI6YjiFiVaV7zS0x-7" value="" style="endArrow=classic;html=1;rounded=0;" parent="1" edge="1">
          <mxGeometry width="50" height="50" relative="1" as="geometry">
            <mxPoint x="690" y="149.5" as="sourcePoint" />
            <mxPoint x="750" y="149.5" as="targetPoint" />
          </mxGeometry>
        </mxCell>
        <mxCell id="t8zbVI6YjiFiVaV7zS0x-8" value="Concurrent Review&lt;br&gt;(step down/&lt;br&gt;discharge)" style="rounded=0;whiteSpace=wrap;html=1;" parent="1" vertex="1">
          <mxGeometry x="560" y="120" width="120" height="60" as="geometry" />
        </mxCell>
        <mxCell id="t8zbVI6YjiFiVaV7zS0x-9" value="" style="endArrow=classic;html=1;rounded=0;" parent="1" edge="1">
          <mxGeometry width="50" height="50" relative="1" as="geometry">
            <mxPoint x="900" y="149.5" as="sourcePoint" />
            <mxPoint x="960" y="149.5" as="targetPoint" />
          </mxGeometry>
        </mxCell>
        <mxCell id="t8zbVI6YjiFiVaV7zS0x-10" value="Discharge" style="rounded=0;whiteSpace=wrap;html=1;" parent="1" vertex="1">
          <mxGeometry x="980" y="120" width="120" height="60" as="geometry" />
        </mxCell>
        <mxCell id="t8zbVI6YjiFiVaV7zS0x-11" value="" style="endArrow=classic;html=1;rounded=0;" parent="1" edge="1">
          <mxGeometry width="50" height="50" relative="1" as="geometry">
            <mxPoint x="1120" y="149.5" as="sourcePoint" />
            <mxPoint x="1180" y="149.5" as="targetPoint" />
          </mxGeometry>
        </mxCell>
        <mxCell id="t8zbVI6YjiFiVaV7zS0x-12" value="Re-admit" style="rounded=0;whiteSpace=wrap;html=1;" parent="1" vertex="1">
          <mxGeometry x="1200" y="120" width="120" height="60" as="geometry" />
        </mxCell>
        <mxCell id="t8zbVI6YjiFiVaV7zS0x-13" value="non-BH 360 Facility" style="text;html=1;strokeColor=none;fillColor=none;align=center;verticalAlign=middle;whiteSpace=wrap;rounded=0;" parent="1" vertex="1">
          <mxGeometry x="10" y="220" width="100" height="30" as="geometry" />
        </mxCell>
        <mxCell id="t8zbVI6YjiFiVaV7zS0x-14" value="BH360 Care Advocate work with facility staff to create comprehensive discharge plan (SDOH, clinical background). better engagement from the program&amp;nbsp;&amp;nbsp;" style="text;html=1;strokeColor=none;fillColor=none;align=center;verticalAlign=middle;whiteSpace=wrap;rounded=0;" parent="1" vertex="1">
          <mxGeometry x="315" y="330" width="565" height="30" as="geometry" />
        </mxCell>
        <mxCell id="nIXQPioJnCcoIgoCWJyI-1" value="BH 360 Facility" style="text;html=1;strokeColor=none;fillColor=none;align=center;verticalAlign=middle;whiteSpace=wrap;rounded=0;" vertex="1" parent="1">
          <mxGeometry x="10" y="290" width="100" height="30" as="geometry" />
        </mxCell>
        <mxCell id="nIXQPioJnCcoIgoCWJyI-2" value="approved 99%" style="text;html=1;strokeColor=none;fillColor=none;align=center;verticalAlign=middle;whiteSpace=wrap;rounded=0;" vertex="1" parent="1">
          <mxGeometry x="130" y="290" width="110" height="30" as="geometry" />
        </mxCell>
        <mxCell id="nIXQPioJnCcoIgoCWJyI-5" value="approved if meet medical necessity" style="text;html=1;strokeColor=none;fillColor=none;align=center;verticalAlign=middle;whiteSpace=wrap;rounded=0;" vertex="1" parent="1">
          <mxGeometry x="120" y="220" width="110" height="30" as="geometry" />
        </mxCell>
        <mxCell id="nIXQPioJnCcoIgoCWJyI-6" value="approved if meet medical necessity" style="text;html=1;strokeColor=none;fillColor=none;align=center;verticalAlign=middle;whiteSpace=wrap;rounded=0;" vertex="1" parent="1">
          <mxGeometry x="560" y="220" width="110" height="30" as="geometry" />
        </mxCell>
        <mxCell id="nIXQPioJnCcoIgoCWJyI-7" value="approved 99%" style="text;html=1;strokeColor=none;fillColor=none;align=center;verticalAlign=middle;whiteSpace=wrap;rounded=0;" vertex="1" parent="1">
          <mxGeometry x="560" y="290" width="110" height="30" as="geometry" />
        </mxCell>
        <mxCell id="nIXQPioJnCcoIgoCWJyI-8" value="&lt;font style=&quot;font-size: 10px;&quot;&gt;if meet trigger&lt;/font&gt;" style="text;html=1;strokeColor=none;fillColor=none;align=center;verticalAlign=middle;whiteSpace=wrap;rounded=0;" vertex="1" parent="1">
          <mxGeometry x="670" y="120" width="110" height="30" as="geometry" />
        </mxCell>
        <mxCell id="nIXQPioJnCcoIgoCWJyI-9" value="" style="endArrow=classic;startArrow=classic;html=1;rounded=0;" edge="1" parent="1">
          <mxGeometry width="50" height="50" relative="1" as="geometry">
            <mxPoint x="330" y="370" as="sourcePoint" />
            <mxPoint x="880" y="370" as="targetPoint" />
          </mxGeometry>
        </mxCell>
        <mxCell id="nIXQPioJnCcoIgoCWJyI-10" value="phone outreach" style="text;html=1;strokeColor=none;fillColor=none;align=center;verticalAlign=middle;whiteSpace=wrap;rounded=0;" vertex="1" parent="1">
          <mxGeometry x="760" y="220" width="110" height="30" as="geometry" />
        </mxCell>
      </root>
    </mxGraphModel>
  </diagram>
</mxfile>
